<?xml version="1.0"?>
<svg xmlns="http://www.w3.org/2000/svg" xmlns:xlink="http://www.w3.org/1999/xlink" xmlns:svgjs="http://svgjs.com/svgjs" version="1.1" width="512" height="512" x="0" y="0" viewBox="0 0 512 512" style="enable-background:new 0 0 512 512" xml:space="preserve" class=""><g>
<g xmlns="http://www.w3.org/2000/svg">
	<g>
		<path d="M348.962,6.656C345.986,2.464,341.154,0,336.002,0h-160c-5.152,0-9.984,2.464-12.992,6.656    c-3.008,4.16-3.808,9.536-2.176,14.4l32,96c2.176,6.528,8.288,10.944,15.168,10.944h96c6.88,0,12.992-4.416,15.168-10.912l32-96    C352.802,16.192,352.002,10.816,348.962,6.656z M292.482,96h-72.96L198.21,32h115.616L292.482,96z" fill="#0153fe" data-original="#000000" style="" class=""/>
	</g>
</g>
<g xmlns="http://www.w3.org/2000/svg">
	<g>
		<path d="M383.586,380.32l-64-272c-2.016-8.576-10.528-13.888-19.232-11.904c-8.64,2.048-13.952,10.656-11.904,19.264    l61.92,263.328l-94.368,94.368l-94.4-94.368l61.984-263.328c2.016-8.608-3.328-17.216-11.904-19.232    c-8.608-2.016-17.248,3.296-19.264,11.904l-64,272c-1.28,5.376,0.32,11.072,4.256,14.976l112,112    c3.136,3.104,7.232,4.672,11.328,4.672c4.096,0,8.192-1.568,11.328-4.704l112-112C383.234,391.392,384.866,385.696,383.586,380.32    z" fill="#0153fe" data-original="#000000" style="" class=""/>
	</g>
</g>
<g xmlns="http://www.w3.org/2000/svg">
</g>
<g xmlns="http://www.w3.org/2000/svg">
</g>
<g xmlns="http://www.w3.org/2000/svg">
</g>
<g xmlns="http://www.w3.org/2000/svg">
</g>
<g xmlns="http://www.w3.org/2000/svg">
</g>
<g xmlns="http://www.w3.org/2000/svg">
</g>
<g xmlns="http://www.w3.org/2000/svg">
</g>
<g xmlns="http://www.w3.org/2000/svg">
</g>
<g xmlns="http://www.w3.org/2000/svg">
</g>
<g xmlns="http://www.w3.org/2000/svg">
</g>
<g xmlns="http://www.w3.org/2000/svg">
</g>
<g xmlns="http://www.w3.org/2000/svg">
</g>
<g xmlns="http://www.w3.org/2000/svg">
</g>
<g xmlns="http://www.w3.org/2000/svg">
</g>
<g xmlns="http://www.w3.org/2000/svg">
</g>
</g></svg>
